PathFileType	4	(X/Y/Z)	OpenSim_Sub04_EMGStiffKnee_Accel.trc
DataRate	CameraRate	NumFrames	NumMarkers	Units	OrigDataRate	OrigDataStartFrame	OrigNumFrames
100	100	13	8	m	100	1035	8277
Frame#	Time	torso_imu_offset_imu	pelvis_imu_offset_imu	tibia_r_imu_offset_imu	femur_r_imu_offset_imu	tibia_l_imu_offset_imu	femur_l_imu_offset_imu	toes_r_imu_offset_imu	toes_l_imu_offset_imu
				X1	Y1	Z1	X2	Y2	Z2	X3	Y3	Z3	X4	Y4	Z4	X5	Y5	Z5	X6	Y6	Z6	X7	Y7	Z7	X8		Y8	Z8	

1035	10.34000000	-6.81623399	-0.75312926	8.18518140	8.70792001	-0.33236594	2.58139638	5.31780514	7.32086009	1.29953073	5.90218907	-2.94429431	2.61354781	9.54197421	-3.22335250	-0.46198581	9.00681514	0.78987325	-2.89388598	15.54768187	-0.14121596	7.41501945	5.68546880	2.73818058	10.32553500
1036	10.35000000	-6.87780636	-0.68666232	8.12705272	8.82554390	-0.70401560	2.58840793	5.73563732	7.80521616	1.08463941	5.74113706	-2.72315051	2.76867636	9.55755447	-3.10428634	-0.36213167	9.10330839	0.38605010	-2.88689712	16.15143549	0.31737565	6.79797504	5.41731728	2.62009120	10.48811869
1037	10.36000000	-6.89613782	-0.74969071	8.13695670	8.89050363	-1.06515915	2.65072114	6.48651256	7.14425304	1.42695440	5.64622832	-2.85199140	2.97355311	9.56648943	-3.00670428	-0.20153103	9.30062667	0.23109410	-2.87973555	16.37823281	-0.37461712	5.38489565	5.26501822	2.52974626	10.62809585
1038	10.37000000	-6.87905110	-0.85106298	8.21405796	8.96383269	-1.27408669	2.58838988	7.78177417	5.89606368	1.97374024	5.61565715	-3.01402927	3.21523456	9.59830345	-2.73659454	-0.17858860	9.53262207	0.33584101	-2.86221181	17.51366966	-1.44881317	3.92508786	5.64789086	2.63203537	10.38947852
1039	10.38000000	-6.90470352	-0.91540825	8.33549183	8.97491399	-1.31767898	2.51241809	9.19298862	5.23303935	1.77571002	5.59372120	-3.00685704	3.42298701	9.64774777	-2.42561982	-0.14949882	9.65386480	0.62895700	-2.76713148	18.60208879	-1.78337457	2.57724003	5.74185898	2.71455011	10.42208133
1040	10.39000000	-6.89792968	-1.01482026	8.43094320	8.96372011	-1.29942851	2.43917337	10.14402196	4.86711204	1.02614819	5.50970644	-2.96615370	3.60553550	9.82765734	-2.12868994	-0.15425611	9.65517023	1.03229048	-2.71277041	18.71563894	-1.14555553	1.12090501	5.54260398	2.69099392	10.54175565
1041	10.40000000	-6.90478589	-1.10889534	8.47847648	9.05762868	-1.14347698	2.43127718	10.39696590	4.20426460	0.58899210	5.54173719	-3.01105428	3.71959709	10.06027711	-1.66649894	-0.16699861	9.40564517	1.31350297	-2.66752915	18.54322157	-0.30082767	-0.54299930	5.18533659	2.67921759	10.76427743
1042	10.41000000	-7.05012428	-1.13004612	8.50399414	9.17377204	-0.84976646	2.52983140	9.89792407	3.50563218	0.52093004	5.79307056	-3.35201081	3.82476413	10.21895673	-1.18894157	-0.14429433	9.04421310	1.47794915	-2.71847487	18.23845502	0.34503521	-2.35714979	5.36998192	2.70158183	10.66189899
1043	10.42000000	-7.35964575	-1.20559767	8.56219184	9.24275777	-0.60886343	2.56453246	8.76487731	3.18836017	0.22237912	6.10837106	-4.03062436	3.74676966	10.20427221	-0.84211927	-0.15267381	8.89621993	1.62345131	-2.91779914	18.01283661	1.47346006	-3.76205592	5.68717747	2.64134959	10.42426250
1044	10.43000000	-7.60965974	-1.24588468	8.70852126	9.34197213	-0.40215019	2.54325238	7.44867481	3.48650638	0.01515323	6.45417646	-4.93759288	3.12720687	10.10884469	-0.87565908	-0.10739804	8.87828169	1.62017150	-3.27315597	18.61589643	2.50261567	-4.76541454	5.51206134	2.89884706	10.58746877
1045	10.44000000	-7.74835443	-1.18567384	8.81840614	9.43912433	-0.21950342	2.53434577	6.48431870	4.12441380	-0.04153354	6.89086609	-6.20357662	2.35397785	10.13229228	-1.38427315	-0.09919603	8.92307069	1.51758656	-3.55269374	18.40933191	2.63619402	-5.29276792	4.92208130	2.47758565	11.09112319
1046	10.45000000	-7.77631165	-1.12555919	8.93447257	9.53473294	-0.18197325	2.53871990	5.84434877	5.03583917	-0.11945057	7.37200744	-7.59067537	2.24115909	10.43435393	-1.91781044	0.31558203	9.15109905	1.50226386	-3.58052868	16.74219668	-0.05552510	-7.79492677	5.01013407	2.17074646	11.14529485
1047	10.46000000	-7.75453658	-1.08834890	9.07624632	9.55213104	-0.25486571	2.47917288	5.51594620	5.83071003	0.02091934	7.70373551	-8.60355389	2.79405193	10.56366300	-2.08447872	0.70891852	9.52671823	1.46257635	-3.48560704	18.42740660	-0.06123797	-9.81690549	5.37559579	2.50461052	10.94875390
